<svg xmlns="http://www.w3.org/2000/svg" xmlns:xlink="http://www.w3.org/1999/xlink" height="800" width="1200" viewBox="-35.52 -48.53725 307.84 291.2235"><defs><linearGradient id="a" y2=".721" x2="1" y1=".279" x1="0"><stop offset="0%" stop-color="#FF4C1D"/><stop offset="100%" stop-color="#9B0063"/></linearGradient><linearGradient gradientUnits="userSpaceOnUse" gradientTransform="scale(1.22662 .81525)" y2="96.381" x2="133.701" y1="37.32" x1="0" id="b" xlink:href="#a"/></defs><g fill="none"><path d="M1.378 31.803A3.277 3.277 0 000 34.458v.04c.004.434.094.873.28 1.29l15.696 35.455a3.296 3.296 0 004.116 1.765c10.277-3.653 45.867-15.212 68.9-8.977 0 0-23.105 1.332-43.997 17.666a3.264 3.264 0 00-.967 3.89c1.697 3.82 5.102 11.501 7.029 15.842l2.706 6.329c.644 1.501 2.702 1.682 3.61.322 4.875-7.319 13.094-10.974 20.99-14.166 8.088-3.267 16.529-5.705 25.139-7.156 9.174-1.546 18.541-1.96 27.813-1.142a3.29 3.29 0 003.438-2.28l7.091-22.594a3.262 3.262 0 00-1.202-3.618c-7.907-5.711-39.23-24.892-94.31-17.187 0 0 47.002-26.917 106.672 2.652 1.808.897 3.99-.045 4.594-1.96l6.252-19.925c.097-.309.144-.622.15-.93v-.096a3.267 3.267 0 00-1.661-2.795C154.849 12.66 129.494 0 94.614 0 67.88-.002 35.554 7.434 1.378 31.803" fill="url(#b)" transform="translate(36)"/><path d="M67.049 194.097h-5.76a1.64 1.64 0 01-1.64-1.64v-33.304h-14.11a1.64 1.64 0 01-1.632-1.64v-5.159c0-.905.734-1.64 1.64-1.64h37.254c.906 0 1.64.735 1.64 1.64v5.16a1.64 1.64 0 01-1.64 1.639H68.689v33.305a1.64 1.64 0 01-1.64 1.64zm-26.926-3.149c2.111-2.11 2.975-4.796 2.975-9.264v-1.137c0-4.473-.864-7.15-2.975-9.267-2.237-2.239-5.202-3.151-10.225-3.151H11.662a2.733 2.733 0 01-2.733-2.735v-3.509a2.733 2.733 0 012.733-2.732H37.77a1.64 1.64 0 001.64-1.64v-5.159a1.64 1.64 0 00-1.64-1.64H13.2c-5.025 0-7.988.913-10.228 3.152C.861 155.976 0 158.662 0 163.131v.897c0 4.48.86 7.156 2.972 9.267 2.24 2.239 5.203 3.151 10.227 3.151h18.303a2.735 2.735 0 012.735 2.733v3.745a2.735 2.735 0 01-2.735 2.735H4.006a1.64 1.64 0 00-1.64 1.64v5.159a1.64 1.64 0 001.64 1.64h25.9c5.017 0 7.98-.913 10.217-3.15zm130.324-18.662v.299c0 8.36-1.325 12.645-5.067 16.386-3.453 3.452-8.594 5.178-15.313 5.178h-19.871a1.64 1.64 0 01-1.64-1.64v-40.155c0-.905.734-1.64 1.64-1.64h19.878c6.72 0 11.87 1.747 15.313 5.18 3.742 3.737 5.06 8.035 5.06 16.392zm-9.038 0c0-5.563-.353-8.238-2.536-10.42-1.786-1.786-4.664-2.651-8.806-2.651h-12.471v26.444h12.478c4.142 0 7.023-.868 8.806-2.653 2.183-2.18 2.536-4.858 2.536-10.421zm23.7 20.172v-40.104a1.64 1.64 0 00-1.64-1.64h-5.753a1.64 1.64 0 00-1.64 1.64v40.104c0 .905.734 1.64 1.64 1.64h5.76a1.64 1.64 0 001.64-1.64zm-61.85 1.64h-6.092a2.19 2.19 0 01-1.989-1.276l-2.802-6.066H89.764l-2.807 6.069a2.186 2.186 0 01-1.973 1.27h-6.122a1.64 1.64 0 01-1.48-2.35l18.5-38.508a5.765 5.765 0 0110.36 0l18.5 38.503a1.64 1.64 0 01-1.475 2.357zm-29.802-15.373h15.237l-7.603-17.333zm141.7 15.372h-6.105a2.188 2.188 0 01-1.988-1.275l-2.797-6.066h-22.612l-2.805 6.069a2.193 2.193 0 01-1.973 1.27h-6.122a1.64 1.64 0 01-1.48-2.35l18.5-38.508a5.762 5.762 0 0110.36 0l18.5 38.503a1.64 1.64 0 01-1.478 2.357zm-29.81-15.372h15.237l-7.6-17.333z" fill="#3C4043"/></g></svg>